# xmcd
#
# Track frame offsets: 
#        182
#        11365
#        25560
#        38525
#        51390
#        64992
#        74237
#        88480
#        102675
#        113137
#        123495
#        134505
#        145592
#        155985
#        168057
#        182817
#        195392
#        206170
#        215872
#
# Disc length: 2996 seconds
#
# Revision: 4
# Processed by: cddbd v1.5.2PL0 Copyright (c) Steve Scherf et al.
# Submitted via: ExactAudioCopyFreeDBPlugin 1.0
#
DISCID=270bb213
DTITLE=Lenoir, J.B. - Eisenhower Blues - The Blues Collection 34
DYEAR=1994
DGENRE=Blues
TTITLE0=Mama talk to your daughter
TTITLE1=Man watch your woman
TTITLE2=Eisenhower blues
TTITLE3=If you love me
TTITLE4=Sitting down thinking
TTITLE5=Mama, your daughter is going to miss me
TTITLE6=What have I done
TTITLE7=We can't go on this way
TTITLE8=Give me one more shot
TTITLE9=Everybody wants to know
TTITLE10=J.B.'s rock
TTITLE11=Low down dirty shame
TTITLE12=Don't touch my head
TTITLE13=When I am drinking
TTITLE14=I've been down for so long
TTITLE15=Daddy talk to your son
TTITLE16=I son't know
TTITLE17=Good looking woman
TTITLE18=Voodoo boogie
EXTD=
EXTT0=
EXTT1=
EXTT2=
EXTT3=
EXTT4=
EXTT5=
EXTT6=
EXTT7=
EXTT8=
EXTT9=
EXTT10=
EXTT11=
EXTT12=
EXTT13=
EXTT14=
EXTT15=
EXTT16=
EXTT17=
EXTT18=
PLAYORDER=
